<svg xmlns="http://www.w3.org/2000/svg" xmlns:xlink="http://www.w3.org/1999/xlink" width="2080" zoomAndPan="magnify" viewBox="0 0 1560 1559.999932" height="2080" preserveAspectRatio="xMidYMid meet" version="1.0"><defs><g/></defs><g fill="#000000" fill-opacity="1"><g transform="translate(750.916948, 1327.68392)"><g><path d="M 40.09375 -710.796875 L 133.28125 -710.796875 L 133.28125 -17.34375 L 42.25 -17.34375 L 42.25 0 L 331.5625 0 L 331.5625 -17.34375 L 238.375 -17.34375 L 238.375 -374.90625 L 323.96875 -374.90625 C 339.863281 -374.90625 352.503906 -372.554688 361.890625 -367.859375 C 371.285156 -363.160156 378.691406 -356.476562 384.109375 -347.8125 C 389.523438 -339.144531 393.675781 -328.671875 396.5625 -316.390625 C 399.457031 -304.109375 402.347656 -290.382812 405.234375 -275.21875 C 407.398438 -265.101562 410.289062 -260.046875 413.90625 -260.046875 C 418.238281 -260.046875 420.40625 -264.742188 420.40625 -274.140625 L 420.40625 -494.09375 C 420.40625 -502.757812 418.238281 -507.09375 413.90625 -507.09375 C 410.289062 -507.09375 407.398438 -502.035156 405.234375 -491.921875 C 402.347656 -476.753906 399.457031 -463.03125 396.5625 -450.75 C 393.675781 -438.46875 389.523438 -427.992188 384.109375 -419.328125 C 378.691406 -410.660156 371.285156 -403.976562 361.890625 -399.28125 C 352.503906 -394.582031 339.863281 -392.234375 323.96875 -392.234375 L 238.375 -392.234375 L 238.375 -710.796875 L 403.078125 -710.796875 C 427.628906 -710.796875 448.210938 -704.835938 464.828125 -692.921875 C 481.441406 -681.003906 494.804688 -666.195312 504.921875 -648.5 C 515.035156 -630.800781 522.441406 -612.019531 527.140625 -592.15625 C 531.835938 -572.289062 534.546875 -554.410156 535.265625 -538.515625 C 535.265625 -528.398438 538.15625 -523.34375 543.9375 -523.34375 C 548.988281 -523.34375 551.515625 -528.039062 551.515625 -537.4375 L 551.515625 -702.125 C 551.515625 -719.46875 542.484375 -728.140625 524.421875 -728.140625 L 40.09375 -728.140625 Z M 40.09375 -710.796875 "/></g></g></g><g fill="#000000" fill-opacity="1"><g transform="translate(247.093664, 953.46042)"><g><path d="M 36.875 -17.359375 L 36.875 0 L 227.734375 0 L 227.734375 -17.359375 L 140.984375 -17.359375 L 140.984375 -692.984375 L 382.828125 0 L 396.921875 0 L 638.765625 -697.328125 L 638.765625 -17.359375 L 552 -17.359375 L 552 0 L 830.71875 0 L 830.71875 -17.359375 L 743.953125 -17.359375 L 743.953125 -711.421875 L 830.71875 -711.421875 L 830.71875 -728.78125 L 630.078125 -728.78125 L 437.046875 -171.34375 L 237.5 -728.78125 L 36.875 -728.78125 L 36.875 -711.421875 L 123.625 -711.421875 L 123.625 -17.359375 Z M 36.875 -17.359375 "/></g></g></g><g fill="#000000" fill-opacity="1"><g transform="translate(266.144582, 1152.94545)"><g><path d="M 21.90625 -134.515625 L 76.671875 -134.515625 C 90.890625 -134.515625 103.441406 -131.664062 114.328125 -125.96875 C 125.222656 -120.269531 133.679688 -112.328125 139.703125 -102.140625 C 145.722656 -91.953125 148.734375 -80.328125 148.734375 -67.265625 C 148.734375 -54.191406 145.722656 -42.5625 139.703125 -32.375 C 133.679688 -22.195312 125.222656 -14.253906 114.328125 -8.546875 C 103.441406 -2.847656 90.890625 0 76.671875 0 L 21.90625 0 Z M 75.90625 -12.296875 C 87.695312 -12.296875 98.007812 -14.632812 106.84375 -19.3125 C 115.6875 -23.988281 122.539062 -30.457031 127.40625 -38.71875 C 132.28125 -46.988281 134.71875 -56.503906 134.71875 -67.265625 C 134.71875 -78.023438 132.28125 -87.535156 127.40625 -95.796875 C 122.539062 -104.054688 115.6875 -110.523438 106.84375 -115.203125 C 98.007812 -119.878906 87.695312 -122.21875 75.90625 -122.21875 L 36.125 -122.21875 L 36.125 -12.296875 Z M 75.90625 -12.296875 "/></g></g></g><g fill="#000000" fill-opacity="1"><g transform="translate(463.695106, 1152.94545)"><g><path d="M 21.90625 -134.515625 L 36.125 -134.515625 L 36.125 0 L 21.90625 0 Z M 21.90625 -134.515625 "/></g></g></g><g fill="#000000" fill-opacity="1"><g transform="translate(560.54896, 1152.94545)"><g><path d="M 106.265625 -35.9375 L 31.328125 -35.9375 L 15.1875 0 L 0.390625 0 L 61.875 -134.515625 L 75.90625 -134.515625 L 137.40625 0 L 122.40625 0 Z M 101.078125 -47.46875 L 68.796875 -119.71875 L 36.515625 -47.46875 Z M 101.078125 -47.46875 "/></g></g></g><g fill="#000000" fill-opacity="1"><g transform="translate(737.153052, 1152.94545)"><g><path d="M 118.953125 -12.296875 L 118.953125 0 L 8.640625 0 L 8.640625 -9.796875 L 97.8125 -122.21875 L 10 -122.21875 L 10 -134.515625 L 116.640625 -134.515625 L 116.640625 -124.71875 L 27.671875 -12.296875 Z M 118.953125 -12.296875 "/></g></g></g></svg>